# xmcd
#
# Track frame offsets: 
#        150
#        19795
#        32017
#        48142
#        59467
#        74042
#        85520
#        99592
#        111725
#        124110
#        136927
#        150810
#        163630
#        178272
#        195602
#        210567
#        228382
#        253007
#        273202
#        302367
#
# Disc length: 4235 seconds
#
# Revision: 2
# Processed by: cddbd v1.5.2PL0 Copyright (c) Steve Scherf et al.
# Submitted via: ExactAudioCopy v0.99pb4
#
DISCID=0d108914
DTITLE=Duke Ellington - The Reprise Studio Recordings Disc 2
DYEAR=1963
DGENRE=Jazz
TTITLE0=Afro-Bossa
TTITLE1=Purple Gazelle
TTITLE2=Absinthe
TTITLE3=Moonbow
TTITLE4=Sempre Amoré
TTITLE5=Caliné (Silk Lace)
TTITLE6=Tigress
TTITLE7=Angu
TTITLE8=Volupté
TTITLE9=Bonga
TTITLE10=Pyramid
TTITLE11=Eighth Veil
TTITLE12=Resume #1
TTITLE13=Resume #2
TTITLE14=Tricky's Licks
TTITLE15=Blues in C
TTITLE16=Limbo Jazz
TTITLE17=Pretty Little One
TTITLE18=String Along With Strings
TTITLE19=The Feeling of Jazz
EXTD=YEAR: 1976
EXTT0=
EXTT1=
EXTT2=
EXTT3=
EXTT4=
EXTT5=
EXTT6=
EXTT7=
EXTT8=
EXTT9=
EXTT10=
EXTT11=
EXTT12=
EXTT13=
EXTT14=
EXTT15=
EXTT16=
EXTT17=
EXTT18=
EXTT19=
PLAYORDER=
